<?xml version="1.0" standalone="no"?><!DOCTYPE svg PUBLIC "-//W3C//DTD SVG 1.1//EN" "http://www.w3.org/Graphics/SVG/1.1/DTD/svg11.dtd"><svg t="1545640966016" class="icon" style="" viewBox="0 0 1102 1024" version="1.1" xmlns="http://www.w3.org/2000/svg" p-id="2924" xmlns:xlink="http://www.w3.org/1999/xlink" width="34.4375" height="32"><defs><style type="text/css"></style></defs><path d="M1012.820686 355.879899c-15.753834 23.788289-42.377814 38.045509-70.892254 37.927355a92.51439 92.51439 0 0 1-92.671928-92.159929 37.218433 37.218433 0 0 0-37.336587-37.179048 37.218433 37.218433 0 0 0-37.297202 37.139663 92.553775 92.553775 0 0 1-92.632544 92.159929 92.51439 92.51439 0 0 1-92.632544-92.159929 37.218433 37.218433 0 0 0-37.297202-37.139663 37.218433 37.218433 0 0 0-37.297202 37.139663 92.553775 92.553775 0 0 1-92.711314 92.159929 92.51439 92.51439 0 0 1-92.632544-92.159929 37.218433 37.218433 0 0 0-37.297202-37.139663 37.218433 37.218433 0 0 0-37.336587 37.139663 92.553775 92.553775 0 0 1-92.593159 92.159929c-10.791376 0-21.267676-1.772306-31.310745-5.356303-43.323044-15.438757-66.559949-64.984565-51.79073-110.355608l53.68119-165.10018a56.123034 56.123034 0 0 1 53.484266-38.715047H913.847223c23.985212 0 45.292273 15.123681 53.16919 37.809201L1023.454524 275.692883a89.836239 89.836239 0 0 1-10.673223 80.147631z m81.171629-104.290382l-56.398725-163.642951A130.756822 130.756822 0 0 0 913.807839 0.000788H186.335168a130.441746 130.441746 0 0 0-124.494674 90.072546L8.11992 255.252284c-27.05721 83.140859 16.738449 174.316174 97.673771 203.06692a167.305717 167.305717 0 0 0 186.289087-52.066421 167.305717 167.305717 0 0 0 130.008516 61.833798c50.412269 0 98.146386-22.685521 129.969131-61.794414a167.305717 167.305717 0 0 0 129.929746 61.75503 167.305717 167.305717 0 0 0 129.969131-61.75503 167.305717 167.305717 0 0 0 139.736508 61.479338 158.601724 158.601724 0 0 0 123.076828-70.459023 165.375873 165.375873 0 0 0 19.298447-145.644196l-0.07877-0.078769zM458.876496 931.446225v-255.527188c0-8.782762 7.246764-15.950757 16.068911-15.950757h153.206036c8.822147 0 16.029526 7.167994 16.029526 15.950757v255.527188h-185.304473z m523.814982-428.149824a37.218433 37.218433 0 0 0-37.336587 37.139663v355.327727a35.839972 35.839972 0 0 1-35.839972 35.682434h-190.739546v-255.527188a90.505777 90.505777 0 0 0-90.584545-90.1907h-153.284806a90.505777 90.505777 0 0 0-90.584545 90.1907v255.527188H193.542547a35.839972 35.839972 0 0 1-35.839973-35.682434v-355.327727a37.218433 37.218433 0 0 0-37.336586-37.139663 37.218433 37.218433 0 0 0-37.336587 37.139663v355.327727a110.355607 110.355607 0 0 0 110.513146 109.922377h716.011757a110.355607 110.355607 0 0 0 110.434376-109.922377v-355.327727a37.218433 37.218433 0 0 0-37.297202-37.139663z" p-id="2925" fill="#d81e06"></path></svg>